<svg width="100" height="100" viewBox="0 0 40 40" fill="none" xmlns="http://www.w3.org/2000/svg">
<path d="M20.0131 22.697C18.689 22.6934 17.3863 23.0302 16.2299 23.6749C15.0734 24.3197 14.1021 25.2508 13.4091 26.379C13.3568 26.4636 13.3403 26.5655 13.3632 26.6623C13.3861 26.759 13.4465 26.8427 13.5311 26.895L14.103 27.248C14.1876 27.2999 14.2892 27.3162 14.3857 27.2934C14.4823 27.2705 14.5658 27.2103 14.618 27.126C15.1832 26.2034 15.9763 25.4418 16.921 24.9145C17.8656 24.3872 18.9301 24.1118 20.012 24.115C21.0875 24.112 22.1459 24.3841 23.0865 24.9056C24.0271 25.427 24.8187 26.1803 25.386 27.094C25.4391 27.1777 25.5231 27.2371 25.6198 27.2592C25.7164 27.2813 25.8179 27.2643 25.9021 27.212L26.47 26.856C26.5119 26.8301 26.5482 26.7961 26.5768 26.7561C26.6055 26.716 26.6259 26.6707 26.6369 26.6227C26.6478 26.5747 26.6492 26.525 26.6408 26.4764C26.6324 26.4279 26.6145 26.3815 26.588 26.34C25.8933 25.2229 24.9246 24.3018 23.7739 23.6642C22.6232 23.0266 21.3286 22.6937 20.0131 22.697Z" fill="#cee3e9"/>
<path d="M15.431 17.049C16.0075 17.049 16.475 16.5816 16.475 16.005C16.475 15.4284 16.0075 14.961 15.431 14.961C14.8544 14.961 14.387 15.4284 14.387 16.005C14.387 16.5816 14.8544 17.049 15.431 17.049Z" fill="#cee3e9"/>
<path d="M24.568 17.049C25.1446 17.049 25.612 16.5816 25.612 16.005C25.612 15.4284 25.1446 14.961 24.568 14.961C23.9915 14.961 23.524 15.4284 23.524 16.005C23.524 16.5816 23.9915 17.049 24.568 17.049Z" fill="#cee3e9"/>
</svg>
